<svg width="26" height="27" viewBox="0 0 26 27" fill="none" xmlns="http://www.w3.org/2000/svg">
<circle cx="12.8766" cy="13.4409" r="11.7711" transform="rotate(-5.29552 12.8766 13.4409)" fill="#E5E5FE"/>
<path d="M17.9911 10.7573C17.0792 7.9673 14.4742 6.9146 12.2905 7.11701C12.2905 7.11701 12.2905 7.11701 12.2843 7.11758C10.1067 7.31942 7.7328 8.82738 7.34923 11.7374C6.92251 14.9875 9.12175 17.5026 11.0433 19.0355C11.7555 19.6041 12.6236 19.841 13.4626 19.7632C14.3016 19.6855 15.1114 19.2931 15.7008 18.6038C17.3079 16.7439 19.0079 13.8735 17.9911 10.7573ZM12.96 14.3408C11.8866 14.4403 10.9362 13.6511 10.8367 12.5777C10.7372 11.5043 11.5264 10.5539 12.5998 10.4544C13.6732 10.3549 14.6236 11.1441 14.7231 12.2175C14.8226 13.2909 14.0334 14.2413 12.96 14.3408Z" fill="#5251FA"/>
</svg>
