<svg xmlns="http://www.w3.org/2000/svg" width="29" height="27" fill="none"><mask id="a" width="24" height="25" x="0" y="2" maskUnits="userSpaceOnUse" style="mask-type:alpha"><path fill="#D9D9D9" d="M0 2.367h24v24H0z"/></mask><g mask="url(#a)"><path fill="#fff" d="M5 21.367a.968.968 0 0 1-.713-.288.967.967 0 0 1-.287-.712c0-.283.096-.52.287-.712A.968.968 0 0 1 5 19.367h1v-7c0-1.383.417-2.612 1.25-3.688.833-1.074 1.917-1.778 3.25-2.112v-.7c0-.416.146-.77.438-1.062A1.444 1.444 0 0 1 12 4.367c.417 0 .77.146 1.062.438.292.292.438.646.438 1.062v.7c1.333.334 2.417 1.038 3.25 2.112.833 1.076 1.25 2.305 1.25 3.688v7h1c.283 0 .52.096.712.288a.965.965 0 0 1 .288.712c0 .284-.096.521-.288.712a.965.965 0 0 1-.712.288H5Zm7 3c-.55 0-1.02-.195-1.412-.587A1.927 1.927 0 0 1 10 22.367h4c0 .55-.196 1.021-.587 1.413a1.928 1.928 0 0 1-1.413.587Z"/></g><path fill="#F21673" stroke="#fff" stroke-width="2" d="M22.736 1c2.753 0 5.04 2.17 5.04 4.914 0 2.744-2.287 4.915-5.04 4.915-2.754 0-5.041-2.171-5.041-4.915S19.982 1 22.735 1Z"/></svg>