<svg xmlns="http://www.w3.org/2000/svg" width="40" height="40" fill="none"><path fill="#E68A34" fill-opacity=".1" d="M40 20c0 11.046-8.954 20-20 20S0 31.046 0 20 8.954 0 20 0s20 8.954 20 20Z"/><path fill="#E68A34" d="M31.04 12.784 20.886 7.23a1.832 1.832 0 0 0-1.772 0L8.96 12.787A1.847 1.847 0 0 0 8 14.402v11.035a1.846 1.846 0 0 0 .96 1.616l10.154 5.558a1.832 1.832 0 0 0 1.772 0l10.154-5.558a1.847 1.847 0 0 0 .96-1.616V14.403a1.846 1.846 0 0 0-.96-1.619ZM20 8.844l9.271 5.077-3.436 1.88-9.271-5.078L20 8.843Zm0 10.154-9.271-5.077 3.913-2.143 9.27 5.077L20 18.998Zm10.154 6.444-9.23 5.053v-9.902l3.691-2.02v4.117a.923.923 0 1 0 1.847 0v-5.128l3.692-2.02v9.9Z"/></svg>