<svg xmlns="http://www.w3.org/2000/svg" width="40" height="40" fill="none"><path fill="#E68A34" fill-opacity=".1" d="M40 20c0 11.046-8.954 20-20 20S0 31.046 0 20 8.954 0 20 0s20 8.954 20 20Z"/><path fill="#E68A34" d="M27.215 27.54v-2.834a.447.447 0 0 0-.14-.326.447.447 0 0 0-.651.001.447.447 0 0 0-.138.325v2.819a.99.99 0 0 0 .066.357.97.97 0 0 0 .226.333l1.836 1.835c.09.09.196.138.319.146a.43.43 0 0 0 .34-.146c.106-.105.159-.215.158-.33a.475.475 0 0 0-.157-.33l-1.859-1.85Zm-7.72-7.64c.178 0 .35-.024.514-.072a2.4 2.4 0 0 0 .467-.19l6.876-3.977a.55.55 0 0 0 .278-.365.612.612 0 0 0-.06-.461.553.553 0 0 0-.366-.276.59.59 0 0 0-.456.064L19.5 18.808l-7.248-4.185a.585.585 0 0 0-.456-.064.562.562 0 0 0-.365.276.585.585 0 0 0-.055.461.57.57 0 0 0 .278.365l6.87 3.976c.145.08.3.144.461.192.162.047.332.071.51.071Zm-9.662 3.962v-8.724c0-.35.086-.673.256-.97.171-.297.411-.537.72-.72l7.715-4.443c.17-.101.332-.17.483-.208.151-.038.316-.057.493-.056.177.001.346.02.508.056.162.038.319.107.47.208l7.714 4.444c.309.182.549.422.72.719.17.297.256.62.255.97V19.2a.813.813 0 0 1-.337.683.953.953 0 0 1-.781.175 3.02 3.02 0 0 0-.633-.099 12.09 12.09 0 0 0-.666-.015c-2.13 0-3.95.753-5.456 2.26-1.506 1.506-2.26 3.324-2.26 5.454v.483c0 .149.013.286.038.412.05.393-.076.703-.38.93-.302.227-.616.254-.942.08l-6.94-4.012c-.31-.18-.55-.42-.72-.717a1.914 1.914 0 0 1-.257-.97ZM26.75 32.49c-1.346 0-2.488-.469-3.426-1.407-.938-.939-1.407-2.081-1.407-3.426 0-1.346.469-2.488 1.407-3.426.939-.939 2.08-1.408 3.426-1.408 1.345 0 2.488.47 3.427 1.408.94.938 1.408 2.08 1.406 3.425-.001 1.346-.47 2.488-1.406 3.427-.936.94-2.078 1.408-3.427 1.407Z"/></svg>