<svg xmlns="http://www.w3.org/2000/svg" width="40" height="40" fill="none"><path fill="#E68A34" fill-opacity=".1" d="M40 20c0 11.046-8.954 20-20 20S0 31.046 0 20 8.954 0 20 0s20 8.954 20 20Z"/><path fill="#E68A34" d="M21.599 7.417a1.846 1.846 0 0 0-2.61.276l-5.345 6.696h2.362l4.424-5.544 1.421 1.161-3.562 4.383h2.377l2.616-3.218 3.17 2.589-.55.63h.554c.55-.001 1.098.08 1.624.241a1.846 1.846 0 0 0-.461-2.298l-6.02-4.916ZM9.846 15.312a.923.923 0 0 1 .922-.923h1.03l1.468-1.845h-2.498A2.768 2.768 0 0 0 8 15.312v11.074A4.614 4.614 0 0 0 12.614 31h13.842a3.691 3.691 0 0 0 3.692-3.691v-7.383a3.691 3.691 0 0 0-3.692-3.691H10.768a.923.923 0 0 1-.922-.923Zm13.842 8.306h1.846a.923.923 0 0 1 0 1.845h-1.846a.923.923 0 0 1 0-1.846Z"/></svg>