<svg xmlns="http://www.w3.org/2000/svg" width="40" height="40" fill="none"><path fill="#E68A34" fill-opacity=".1" d="M40 20c0 11.046-8.954 20-20 20S0 31.046 0 20 8.954 0 20 0s20 8.954 20 20Z"/><path fill="#E68A34" fill-rule="evenodd" d="M19.413 14.556a3.303 3.303 0 0 1 2.125 5.09l8.454 6.563a1.375 1.375 0 1 1-.722.986l-8.598-6.674a3.3 3.3 0 1 1-2.48-5.965L18.19 9h1.223v5.556Zm.488 3.244a1.1 1.1 0 1 1-2.2 0 1.1 1.1 0 0 1 2.2 0Z" clip-rule="evenodd"/><path fill="#E68A34" d="M23.216 17.79a4.4 4.4 0 0 0-2.58-4.007V9.065c2.62.23 3.982 1.056 5.201 2.186l.181.167c.52.477.933.857 1.146 1.425l2.588 6.888a1.22 1.22 0 0 1-1.145 1.65h-.997v1.43l-4.629-3.595a4.4 4.4 0 0 0 .236-1.425Zm-6.247-3.995V9.147C11.475 9.974 10 14.073 10 16.318c0 3.524 2.25 6.258 3.306 7.354V31h10.458v-3.98h2.623c.185 0 .361-.04.517-.114l-6.468-5.024a4.4 4.4 0 0 1-3.467-8.087Z"/></svg>