<svg width="40" height="40" viewBox="0 0 40 40" fill="none" xmlns="http://www.w3.org/2000/svg">
<path d="M40 20C40 31.0457 31.0457 40 20 40C8.95431 40 0 31.0457 0 20C0 8.95431 8.95431 0 20 0C31.0457 0 40 8.95431 40 20Z" fill="#E68A34" fill-opacity="0.1"/>
<path fill-rule="evenodd" clip-rule="evenodd" d="M19.4133 14.5562C19.9507 14.6576 20.4546 14.8909 20.8796 15.2351C21.3046 15.5794 21.6374 16.0239 21.8481 16.5287C22.0588 17.0334 22.1408 17.5826 22.0867 18.1268C22.0326 18.6711 21.8441 19.1934 21.5381 19.6468L29.9925 26.2089C30.2678 26.0662 30.5833 26.0209 30.8877 26.0801C31.1921 26.1393 31.4675 26.2997 31.6693 26.5352C31.871 26.7707 31.9872 27.0675 31.9991 27.3774C32.0109 27.6872 31.9176 27.992 31.7344 28.2422C31.5512 28.4924 31.2887 28.6733 30.9898 28.7555C30.6908 28.8378 30.3727 28.8165 30.0873 28.6953C29.8019 28.574 29.5659 28.3599 29.4175 28.0875C29.2692 27.8152 29.2172 27.5008 29.2701 27.1952L20.6716 20.5207C20.2667 20.7981 19.805 20.9818 19.3201 21.0582C18.8352 21.1347 18.3394 21.102 17.8688 20.9626C17.3981 20.8232 16.9645 20.5806 16.5995 20.2524C16.2345 19.9242 15.9473 19.5187 15.7589 19.0654C15.5704 18.6122 15.4855 18.1226 15.5102 17.6324C15.5349 17.1422 15.6686 16.6637 15.9017 16.2317C16.1347 15.7997 16.4612 15.4251 16.8574 15.1353C17.2535 14.8454 17.7093 14.6476 18.1916 14.5562L18.1904 9H19.4126V14.5562H19.4133ZM19.9015 17.8C19.9015 17.9445 19.8731 18.0875 19.8178 18.221C19.7625 18.3544 19.6815 18.4757 19.5794 18.5778C19.4772 18.68 19.3559 18.761 19.2225 18.8163C19.089 18.8715 18.946 18.9 18.8015 18.9C18.6571 18.9 18.514 18.8715 18.3806 18.8163C18.2471 18.761 18.1258 18.68 18.0237 18.5778C17.9215 18.4757 17.8405 18.3544 17.7852 18.221C17.7299 18.0875 17.7015 17.9445 17.7015 17.8C17.7015 17.5083 17.8174 17.2285 18.0237 17.0222C18.23 16.8159 18.5098 16.7 18.8015 16.7C19.0933 16.7 19.3731 16.8159 19.5794 17.0222C19.7857 17.2285 19.9015 17.5083 19.9015 17.8Z" fill="#E68A34"/>
<path d="M23.2162 17.7904C23.2164 16.9451 22.9732 16.1176 22.5155 15.4069C22.0578 14.6962 21.4051 14.1323 20.6355 13.7827V9.06494C23.2566 9.29533 24.6182 10.1209 25.8374 11.2509C25.8985 11.3083 25.9596 11.3639 26.0183 11.4177V11.4183C26.5377 11.895 26.9508 12.2745 27.1641 12.8428L29.7516 19.7313C29.821 19.9162 29.8445 20.1151 29.8201 20.3111C29.7957 20.507 29.7242 20.6941 29.6117 20.8564C29.4992 21.0187 29.349 21.1512 29.174 21.2428C28.999 21.3343 28.8045 21.382 28.607 21.3819H27.6103V22.8113L22.981 19.2161C23.1377 18.7573 23.2174 18.2758 23.2169 17.791L23.2162 17.7904ZM16.9687 13.7949V9.14744C11.4747 9.97427 10 14.073 10 16.3182C10 19.8425 12.2508 22.576 13.3062 23.6717V31.0002H23.7638V27.0206H26.3874C26.572 27.0206 26.748 26.9791 26.9044 26.9057L20.4356 21.8824C19.3665 22.3236 18.1666 22.3261 17.0956 21.8893C16.0246 21.4526 15.1686 20.6117 14.7129 19.5487C14.2572 18.4856 14.2384 17.2859 14.6606 16.2091C15.0827 15.1323 15.9119 14.265 16.9687 13.7949Z" fill="#E68A34"/>
</svg>
