<svg width="24" height="24" viewBox="0 0 24 24" fill="none" xmlns="http://www.w3.org/2000/svg">
<rect width="24" height="24" rx="4" fill="#E28E3C"/>
<path fill-rule="evenodd" clip-rule="evenodd" d="M12 5.33301C12.8755 5.333 13.7424 5.50544 14.5513 5.84047C15.3601 6.1755 16.095 6.66656 16.7141 7.28562C17.3331 7.90467 17.8242 8.6396 18.1592 9.44844C18.4943 10.2573 18.6667 11.1242 18.6667 11.9997C18.6667 15.6816 15.6819 18.6664 12 18.6664C8.31816 18.6664 5.33337 15.6816 5.33337 11.9997C5.33337 8.31779 8.31816 5.33301 12 5.33301ZM12.6667 12.6664H11.3334C9.68291 12.6664 8.26594 13.6659 7.65478 15.0929C8.62178 16.4488 10.2077 17.333 12 17.333C13.7924 17.333 15.3783 16.4488 16.3453 15.0928C15.7342 13.6659 14.3172 12.6664 12.6667 12.6664ZM12 7.33301C10.8955 7.33301 10 8.22845 10 9.33301C10 10.4376 10.8955 11.333 12 11.333C13.1046 11.333 14 10.4376 14 9.33301C14 8.22845 13.1046 7.33301 12 7.33301Z" fill="white"/>
</svg>
