<svg xmlns="http://www.w3.org/2000/svg" width="24" height="24" fill="none"><rect width="24" height="24" fill="#E28E3C" rx="4"/><path fill="#fff" d="M16 10.2c0-.552-.116-1.098-.342-1.607a4.195 4.195 0 0 0-.976-1.363c-.418-.39-.914-.7-1.46-.91a4.78 4.78 0 0 0-3.444 0 4.534 4.534 0 0 0-1.46.91c-.418.39-.75.853-.975 1.363A3.958 3.958 0 0 0 7 10.2c0 .832.263 1.606.71 2.259h-.005L11.5 18l3.795-5.541h-.005c.464-.674.71-1.458.71-2.259ZM11.5 12a2 2 0 0 1-1.364-.527 1.741 1.741 0 0 1-.565-1.273c0-.477.204-.935.565-1.273A2 2 0 0 1 11.5 8.4a2 2 0 0 1 1.364.527c.361.338.565.796.565 1.273 0 .477-.204.935-.565 1.273A2 2 0 0 1 11.5 12Z"/></svg>