<svg xmlns="http://www.w3.org/2000/svg" width="41" height="41" fill="none"><path stroke="#9EA2AD" stroke-linecap="round" stroke-linejoin="round" stroke-width="1.5" d="M20.7 21.8a1.602 1.602 0 0 0-.4 0 5.448 5.448 0 0 1-5.267-5.45 5.46 5.46 0 0 1 5.467-5.467 5.47 5.47 0 0 1 5.466 5.467c-.016 2.95-2.333 5.35-5.266 5.45ZM31.733 32.8A16.557 16.557 0 0 1 20.5 37.167c-4.333 0-8.267-1.65-11.233-4.367.166-1.567 1.166-3.1 2.95-4.3 4.566-3.033 12.033-3.033 16.566 0 1.784 1.2 2.784 2.733 2.95 4.3Z"/><path stroke="#9EA2AD" stroke-linecap="round" stroke-linejoin="round" stroke-width="1.5" d="M20.5 37.167c9.204 0 16.666-7.462 16.666-16.667 0-9.205-7.462-16.667-16.666-16.667-9.205 0-16.667 7.462-16.667 16.667 0 9.205 7.462 16.667 16.667 16.667Z"/></svg>