<svg xmlns="http://www.w3.org/2000/svg" width="23" height="23" fill="none"><path fill="#E68A34" d="M15.333 1.63c-.958 0-1.725.766-1.725 1.724s.767 1.725 1.725 1.725c.959 0 1.725-.766 1.725-1.725 0-.958-.766-1.725-1.725-1.725Zm-3.45 2.778c-.45 0-.862.182-1.15.48L7.187 8.424c-.297.297-.479.68-.479 1.16 0 .603.317 1.111.815 1.408l3.21 1.945v4.792h1.725V11.5l-2.156-1.581 2.223-2.252 1.658 2.396h4.025V8.337h-3.066l-1.86-3.133a1.638 1.638 0 0 0-1.399-.796Zm-2.3-1.054H2.875a.961.961 0 0 1-.958-.958c0-.527.43-.958.958-.958h9.382c-.201.325-.364.68-.45 1.063-.825.02-1.6.326-2.224.853ZM4.792 11.98A4.793 4.793 0 0 0 0 16.771a4.793 4.793 0 0 0 4.792 4.791 4.793 4.793 0 0 0 4.791-4.791 4.793 4.793 0 0 0-4.791-4.792Zm0 8.146a3.358 3.358 0 0 1-3.354-3.354 3.358 3.358 0 0 1 3.354-3.354 3.358 3.358 0 0 1 3.354 3.354 3.358 3.358 0 0 1-3.354 3.354Zm13.416-8.146a4.793 4.793 0 0 0-4.791 4.792 4.793 4.793 0 0 0 4.791 4.791A4.793 4.793 0 0 0 23 16.771a4.793 4.793 0 0 0-4.792-4.792Zm0 8.146a3.358 3.358 0 0 1-3.354-3.354 3.358 3.358 0 0 1 3.354-3.354 3.358 3.358 0 0 1 3.355 3.354 3.358 3.358 0 0 1-3.355 3.354Zm-13.11-9.104H.958A.96.96 0 0 1 0 10.062a.96.96 0 0 1 .958-.958H4.84c-.02.154-.048.316-.048.48 0 .507.115.996.306 1.437Zm.652-3.834H1.917a.961.961 0 0 1-.959-.958c0-.527.432-.958.959-.958h5.72l-1.8 1.792c-.04.038-.087.086-.087.125Z"/></svg>