<svg xmlns="http://www.w3.org/2000/svg" width="24" height="24" fill="none"><rect width="24" height="24" fill="#E28E3C" rx="4"/><path fill="#fff" d="m15.345 5.365-.643-.174-.348 1.287.644.175a3.334 3.334 0 0 1 2.347 2.35l.173.642 1.287-.347-.173-.643a4.666 4.666 0 0 0-3.287-3.29Zm-.609 2.252-.643-.174-.349 1.287.644.175a1 1 0 0 1 .704.704l.173.644 1.288-.347-.174-.644a2.333 2.333 0 0 0-1.643-1.645Z"/><path fill="#fff" d="M10.386 5.333h-5.72V6a13.267 13.267 0 0 0 2.131 7.233 13.4 13.4 0 0 0 3.97 3.97A13.266 13.266 0 0 0 18 19.332h.666v-5.72l-4.46-.991-1.24 1.24a9.4 9.4 0 0 1-2.827-2.829l1.239-1.24-.992-4.46Z"/></svg>