<svg xmlns="http://www.w3.org/2000/svg" width="24" height="24" fill="none"><rect width="24" height="24" fill="#E28E3C" rx="4"/><path fill="#fff" d="M12.039 17.333c-1.482 0-2.741-.518-3.778-1.556C7.223 14.74 6.705 13.481 6.705 12a5.24 5.24 0 0 1 .942-3.023c.629-.92 1.52-1.58 2.674-1.982a.656.656 0 0 1 .357-.038.512.512 0 0 1 .254.133c.067.066.11.15.128.253a.594.594 0 0 1-.042.326 3.208 3.208 0 0 0-.188.648c-.04.22-.059.447-.058.683 0 1.188.414 2.196 1.242 3.025.828.828 1.837 1.242 3.025 1.242.31 0 .594-.033.851-.1.258-.065.477-.118.659-.16a.592.592 0 0 1 .266.008.39.39 0 0 1 .194.117.438.438 0 0 1 .104.205.487.487 0 0 1-.031.278c-.318 1.09-.94 1.98-1.869 2.676-.928.694-1.986 1.042-3.174 1.042Z"/></svg>