<svg xmlns="http://www.w3.org/2000/svg" width="24" height="24" fill="none"><rect width="24" height="24" fill="#E28E3C" rx="4"/><g clip-path="url(#a)"><path fill="#fff" d="m18.56 10.108-.06-.24a3.331 3.331 0 0 0-.313-.667 3.167 3.167 0 0 0-1.213-1.16l-3.5-1.893a3.2 3.2 0 0 0-3.007 0l-3.5 1.893c-.502.27-.92.671-1.213 1.16-.13.208-.234.432-.307.667v.093a3.066 3.066 0 0 0-.114.82v5.08A3.173 3.173 0 0 0 8.5 19.028h7a3.166 3.166 0 0 0 3.167-3.167v-5.087a3.2 3.2 0 0 0-.107-.666Zm-5.506 2.233a2.2 2.2 0 0 1-2.167 0L6.533 9.82c.02-.051.045-.1.074-.147.201-.334.489-.609.833-.793l3.5-1.893a2.16 2.16 0 0 1 2.06 0l3.5 1.893c.412.223.74.574.933 1l-4.38 2.46Z"/></g><defs><clipPath id="a"><path fill="#fff" d="M4 4h16v16H4z"/></clipPath></defs></svg>