<svg xmlns="http://www.w3.org/2000/svg" width="245" height="251" fill="none"><rect width="244.768" height="250.428" fill="#9EA2AD" fill-opacity=".1" rx="122.384"/><path stroke="#9EA2AD" stroke-linejoin="round" d="M79.875 148.438V64.063l9.375 4.687 9.375-4.688 9.357 4.688 9.484-4.688 9.284 4.688 9.313-4.688 9.355 4.688 9.457-4.688 9.378 4.688 9.372-4.688v65.626"/><path stroke="#9EA2AD" stroke-linejoin="round" d="M173.625 129.688V162.5a23.437 23.437 0 0 1-23.437 23.438m0 0A23.44 23.44 0 0 1 126.75 162.5v-14.062H47.063a4.648 4.648 0 0 0-4.342 2.887 4.645 4.645 0 0 0-.346 1.8c0 18.75 1.975 32.813 23.438 32.813h84.375Z"/><path stroke="#9EA2AD" stroke-linecap="round" stroke-linejoin="round" d="M98.625 92.188h56.25m-37.5 23.437h37.5"/></svg>