<svg xmlns="http://www.w3.org/2000/svg" width="24" height="24" fill="none"><rect width="24" height="24" fill="#E28E3C" rx="4"/><g clip-path="url(#a)"><g fill="#fff" clip-path="url(#b)"><path d="M16.033 8.773a.56.56 0 0 0-.56.56v3.187a.56.56 0 0 0 1.12 0V9.333a.567.567 0 0 0-.56-.56Zm-4.246 0a.567.567 0 0 0-.56.56v1.62h1.12v-1.62a.567.567 0 0 0-.56-.56Z"/><path d="M19.253 5.693H4.747A.747.747 0 0 0 4 6.44v9.667a.747.747 0 0 0 .747.753H6.48a5.533 5.533 0 0 1-.987 2.247c2.174.033 3.547-.807 4.367-2.247h9.393a.747.747 0 0 0 .747-.753V6.44a.746.746 0 0 0-.747-.747ZM9.027 8.773H8a.567.567 0 0 0-.56.56v1.62H8.5a.5.5 0 1 1 0 1H7.407v1.627a.5.5 0 0 1-1 0V9.333A1.56 1.56 0 0 1 8 7.773h1.027a.5.5 0 0 1 0 1Zm4.306 4.807a.5.5 0 0 1-1 0v-1.627h-1.106v1.627a.5.5 0 0 1-1 0V9.333a1.56 1.56 0 1 1 3.106 0v4.247Zm4.247-1.06a1.58 1.58 0 0 1-.667 1.267l.5.5a.5.5 0 0 1-.706.706l-.934-.933a1.56 1.56 0 0 1-1.333-1.54V9.333a1.56 1.56 0 0 1 3.12 0l.02 3.187Z"/></g></g><defs><clipPath id="a"><path fill="#fff" d="M4 4h16v16H4z"/></clipPath><clipPath id="b"><path fill="#fff" d="M4 4.4h16v16H4z"/></clipPath></defs></svg>