<svg width="24" height="24" viewBox="0 0 24 24" fill="none" xmlns="http://www.w3.org/2000/svg">
<rect width="24" height="24" rx="4" fill="#E28E3C"/>
<path d="M12 15.5171L9.23331 17.1838C9.11109 17.2616 8.98331 17.2949 8.84998 17.2838C8.71664 17.2727 8.59998 17.2282 8.49998 17.1505C8.39998 17.0727 8.3222 16.9756 8.26664 16.8591C8.21109 16.7427 8.19998 16.612 8.23331 16.4671L8.96664 13.3171L6.51664 11.2005C6.40553 11.1005 6.3362 10.9865 6.30864 10.8585C6.28109 10.7305 6.28931 10.6056 6.33331 10.4838C6.37731 10.362 6.44398 10.262 6.53331 10.1838C6.62264 10.1056 6.74486 10.0556 6.89998 10.0338L10.1333 9.75046L11.3833 6.78379C11.4389 6.65046 11.5251 6.55046 11.642 6.48379C11.7589 6.41712 11.8782 6.38379 12 6.38379C12.1218 6.38379 12.2411 6.41712 12.358 6.48379C12.4749 6.55046 12.5611 6.65046 12.6166 6.78379L13.8666 9.75046L17.1 10.0338C17.2555 10.056 17.3778 10.106 17.4666 10.1838C17.5555 10.2616 17.6222 10.3616 17.6666 10.4838C17.7111 10.606 17.7195 10.7311 17.692 10.8591C17.6644 10.9871 17.5949 11.1009 17.4833 11.2005L15.0333 13.3171L15.7666 16.4671C15.8 16.6116 15.7889 16.7422 15.7333 16.8591C15.6778 16.976 15.6 17.0731 15.5 17.1505C15.4 17.2278 15.2833 17.2722 15.15 17.2838C15.0166 17.2953 14.8889 17.262 14.7666 17.1838L12 15.5171Z" fill="white"/>
</svg>
