<svg xmlns="http://www.w3.org/2000/svg" width="48" height="48" fill="none"><rect width="48" height="48" fill="#fff" rx="24"/><path fill="#FF5F00" d="M28.623 17.18h-8.247v14.8h8.247v-14.8Z"/><path fill="#EB001B" d="M20.901 24.58a9.469 9.469 0 0 1 3.587-7.401c-4.084-3.217-10.001-2.51-13.222 1.595-3.22 4.08-2.513 9.99 1.598 13.206a9.41 9.41 0 0 0 11.65 0 9.414 9.414 0 0 1-3.613-7.4Z"/><path fill="#F79E1B" d="M39.752 24.58c0 5.203-4.216 9.413-9.426 9.413a9.336 9.336 0 0 1-5.812-2.014c4.084-3.216 4.791-9.126 1.571-13.231-.471-.576-.995-1.125-1.57-1.57 4.083-3.216 10.026-2.51 13.22 1.596a9.31 9.31 0 0 1 2.017 5.805ZM38.86 30.411v-.314h.131v-.052h-.314v.052h.131v.314h.053Zm.603 0v-.366h-.105l-.105.261-.105-.261h-.104v.366h.078v-.288l.105.236h.079l.104-.236v.288h.053Z"/></svg>