<svg width="23" height="23" viewBox="0 0 23 23" fill="none" xmlns="http://www.w3.org/2000/svg">
<path d="M15.3333 1.62917C14.375 1.62917 13.6083 2.39583 13.6083 3.35417C13.6083 4.3125 14.375 5.07917 15.3333 5.07917C16.2917 5.07917 17.0583 4.3125 17.0583 3.35417C17.0583 2.39583 16.2917 1.62917 15.3333 1.62917ZM11.8833 4.40833C11.4329 4.40833 11.0208 4.59042 10.7333 4.8875L7.1875 8.42375C6.89042 8.72083 6.70833 9.10417 6.70833 9.58333C6.70833 10.1871 7.02458 10.695 7.52292 10.9921L10.7333 12.9375V17.7292H12.4583V11.5L10.3021 9.91875L12.5254 7.66667L14.1833 10.0625H18.2083V8.3375H15.1417L13.2825 5.20375C13.0046 4.72458 12.4583 4.40833 11.8833 4.40833ZM9.58333 3.35417H2.875C2.34792 3.35417 1.91667 2.92292 1.91667 2.39583C1.91667 1.86875 2.34792 1.4375 2.875 1.4375H12.2571C12.0558 1.76333 11.8929 2.11792 11.8067 2.50125C10.9825 2.52042 10.2063 2.82708 9.58333 3.35417ZM4.79167 11.9792C2.14667 11.9792 0 14.1258 0 16.7708C0 19.4158 2.14667 21.5625 4.79167 21.5625C7.43667 21.5625 9.58333 19.4158 9.58333 16.7708C9.58333 14.1258 7.43667 11.9792 4.79167 11.9792ZM4.79167 20.125C2.94208 20.125 1.4375 18.6204 1.4375 16.7708C1.4375 14.9212 2.94208 13.4167 4.79167 13.4167C6.64125 13.4167 8.14583 14.9212 8.14583 16.7708C8.14583 18.6204 6.64125 20.125 4.79167 20.125ZM18.2083 11.9792C15.5633 11.9792 13.4167 14.1258 13.4167 16.7708C13.4167 19.4158 15.5633 21.5625 18.2083 21.5625C20.8533 21.5625 23 19.4158 23 16.7708C23 14.1258 20.8533 11.9792 18.2083 11.9792ZM18.2083 20.125C16.3587 20.125 14.8542 18.6204 14.8542 16.7708C14.8542 14.9212 16.3587 13.4167 18.2083 13.4167C20.0579 13.4167 21.5625 14.9212 21.5625 16.7708C21.5625 18.6204 20.0579 20.125 18.2083 20.125ZM5.09833 11.0208H0.958333C0.429333 11.0208 0 10.5896 0 10.0625C0 9.53542 0.429333 9.10417 0.958333 9.10417H4.83958C4.82042 9.2575 4.79167 9.42042 4.79167 9.58333C4.79167 10.0912 4.90667 10.58 5.09833 11.0208ZM5.75 7.1875H1.91667C1.38958 7.1875 0.958333 6.75625 0.958333 6.22917C0.958333 5.70208 1.38958 5.27083 1.91667 5.27083H7.63792L5.83625 7.06292C5.79792 7.10125 5.75 7.14917 5.75 7.1875Z" fill="#E68A34"/>
</svg>
