<svg xmlns="http://www.w3.org/2000/svg" width="24" height="24" fill="none"><rect width="24" height="24" fill="#E28E3C" rx="4"/><g fill="#fff" clip-path="url(#a)"><path d="m17.333 15.226-.121-.11a5.233 5.233 0 0 1-.899-1.071 4.684 4.684 0 0 1-.483-1.759V10.48a4.002 4.002 0 0 0-.962-2.618 3.846 3.846 0 0 0-2.417-1.312v-.472c0-.13-.05-.254-.14-.345a.473.473 0 0 0-.676 0 .493.493 0 0 0-.14.345v.479c-.927.13-1.776.6-2.39 1.322a4.002 4.002 0 0 0-.95 2.6v1.807a4.683 4.683 0 0 1-.483 1.759 5.238 5.238 0 0 1-.884 1.07l-.121.11v1.031h10.666v-1.03ZM10.809 18.223a1.178 1.178 0 0 0 2.333 0H10.81Z"/></g><defs><clipPath id="a"><path fill="#fff" d="M4 4h16v16H4z"/></clipPath></defs></svg>