<svg xmlns="http://www.w3.org/2000/svg" width="24" height="26" fill="none"><path fill="#E68A34" d="M23.04 5.784 12.886.23a1.832 1.832 0 0 0-1.772 0L.96 5.787A1.846 1.846 0 0 0 0 7.402v11.035a1.847 1.847 0 0 0 .96 1.616l10.154 5.558a1.832 1.832 0 0 0 1.772 0l10.154-5.558a1.847 1.847 0 0 0 .96-1.616V7.403a1.846 1.846 0 0 0-.96-1.619ZM12 1.844l9.271 5.077-3.436 1.88-9.271-5.077L12 1.844Zm0 10.154L2.729 6.92l3.913-2.143 9.27 5.077L12 11.998Zm10.154 6.444-9.23 5.053v-9.902l3.691-2.02v4.117a.923.923 0 1 0 1.847 0v-5.128l3.692-2.02v9.9Z"/></svg>