<svg xmlns="http://www.w3.org/2000/svg" width="48" height="48" fill="none"><rect width="48" height="48" fill="#fff" rx="24"/><path fill="#00C3F7" d="M32.349 14H14.653c-.565 0-1.083.467-1.083 1.073v1.96c0 .607.518 1.12 1.083 1.12h17.696c.612 0 1.082-.513 1.13-1.12V15.12a1.11 1.11 0 0 0-1.13-1.12Zm0 11.012H14.653c-.282 0-.565.14-.8.327a1.12 1.12 0 0 0-.33.793v1.96c0 .606.518 1.12 1.083 1.12h17.696c.612 0 1.082-.467 1.13-1.12v-1.96c.046-.653-.471-1.12-1.083-1.12Zm-7.719 5.46h-9.977c-.282 0-.565.093-.753.326-.188.187-.33.467-.33.793v1.96c0 .607.518 1.12 1.083 1.12h9.93c.612 0 1.083-.513 1.083-1.12v-2.006c.047-.56-.424-1.074-1.036-1.074Zm8.848-10.966H14.653c-.282 0-.565.093-.753.327-.188.186-.33.466-.33.793v1.96c0 .606.518 1.12 1.083 1.12h18.778c.612 0 1.083-.514 1.083-1.12v-1.96c.047-.653-.424-1.12-1.036-1.12Z"/></svg>