<svg xmlns="http://www.w3.org/2000/svg" width="97" height="97" fill="none"><rect width="96.5" height="96.5" fill="#E68A34" fill-opacity=".1" rx="48.25"/><path fill="#E68A34" d="M45.988 37.612a1.508 1.508 0 0 0-1.508 1.508v3.016a1.508 1.508 0 0 0 1.508 1.508h3.016a1.508 1.508 0 0 0 1.508-1.508V39.12a1.508 1.508 0 0 0-1.508-1.508h-3.016Zm-7.539 7.54a1.508 1.508 0 0 0-1.508 1.507v3.016a1.508 1.508 0 0 0 1.508 1.508h3.016a1.508 1.508 0 0 0 1.508-1.508v-3.016a1.508 1.508 0 0 0-1.508-1.508h-3.016Zm6.032 9.046a1.507 1.507 0 0 1 1.507-1.508h3.016a1.508 1.508 0 0 1 1.508 1.508v3.016a1.508 1.508 0 0 1-1.508 1.508h-3.016a1.508 1.508 0 0 1-1.508-1.508v-3.016Zm-6.032-16.586a1.508 1.508 0 0 0-1.508 1.508v3.016a1.508 1.508 0 0 0 1.508 1.508h3.016a1.508 1.508 0 0 0 1.508-1.508V39.12a1.508 1.508 0 0 0-1.508-1.508h-3.016Zm0 15.078a1.508 1.508 0 0 0-1.508 1.508v3.016a1.508 1.508 0 0 0 1.508 1.508h3.016a1.508 1.508 0 0 0 1.508-1.508v-3.016a1.507 1.507 0 0 0-1.508-1.508h-3.016Zm13.57-6.03a1.508 1.508 0 0 1 1.508-1.509h3.016a1.508 1.508 0 0 1 1.508 1.508v3.016a1.508 1.508 0 0 1-1.508 1.508h-3.016a1.507 1.507 0 0 1-1.508-1.508v-3.016Zm0-7.54a1.508 1.508 0 0 1 1.508-1.508h3.016a1.508 1.508 0 0 1 1.508 1.508v3.016a1.508 1.508 0 0 1-1.508 1.508h-3.016a1.507 1.507 0 0 1-1.508-1.508V39.12Zm-7.538 7.54a1.508 1.508 0 0 1 1.507-1.509h3.016a1.508 1.508 0 0 1 1.508 1.508v3.016a1.508 1.508 0 0 1-1.508 1.508h-3.016a1.508 1.508 0 0 1-1.508-1.508v-3.016Zm9.046 6.03a1.507 1.507 0 0 0-1.508 1.508v3.016a1.508 1.508 0 0 0 1.508 1.508h3.016a1.508 1.508 0 0 0 1.508-1.508v-3.016a1.508 1.508 0 0 0-1.508-1.508h-3.016Z"/><path fill="#E68A34" d="M37.695 27.058a4.523 4.523 0 0 0-4.523 4.523v33.172a4.524 4.524 0 0 0 4.523 4.523h19.602a4.523 4.523 0 0 0 4.523-4.523V31.58a4.524 4.524 0 0 0-4.523-4.523H37.695Zm22.617 6.03v30.157H34.68V33.09h25.633Z"/></svg>