<svg xmlns="http://www.w3.org/2000/svg" width="25" height="24" fill="none"><path fill="#E68A34" fill-rule="evenodd" d="m15.116 3.108-2.889-1.732-2.889 1.732-3.355.297-1.32 3.1-2.54 2.212.755 3.284-.755 3.283 2.54 2.213 1.32 3.099 3.355.296 2.889 1.733 2.889-1.733 3.355-.296 1.32-3.1 2.541-2.212L21.575 12l.756-3.283-2.541-2.213-1.32-3.099-3.354-.297ZM8.75 9.75a.75.75 0 1 1 1.5 0 .75.75 0 0 1-1.5 0ZM9.5 7.5a2.25 2.25 0 1 0 0 4.5 2.25 2.25 0 0 0 0-4.5Zm-.219 8.782 7.5-7.5-1.062-1.063-7.5 7.5 1.062 1.063ZM14.75 15a.75.75 0 1 1 1.501 0 .75.75 0 0 1-1.501 0Zm.75-2.25a2.25 2.25 0 1 0 0 4.499 2.25 2.25 0 0 0 0-4.5Z" clip-rule="evenodd"/></svg>