<svg xmlns="http://www.w3.org/2000/svg" width="24" height="24" fill="none"><rect width="24" height="24" fill="#E28E3C" rx="4"/><path fill="#fff" d="m12 15.517-2.767 1.667a.605.605 0 0 1-.383.1.645.645 0 0 1-.35-.133.8.8 0 0 1-.233-.292.583.583 0 0 1-.034-.392l.734-3.15-2.45-2.117a.637.637 0 0 1-.184-.716.711.711 0 0 1 .2-.3.69.69 0 0 1 .367-.15l3.233-.284 1.25-2.966a.598.598 0 0 1 .259-.3.715.715 0 0 1 .358-.1c.122 0 .241.033.358.1a.597.597 0 0 1 .259.3l1.25 2.966 3.233.284a.692.692 0 0 1 .367.15.714.714 0 0 1 .225.675.633.633 0 0 1-.209.341l-2.45 2.117.734 3.15a.583.583 0 0 1-.034.392.793.793 0 0 1-.233.291.652.652 0 0 1-.35.134.6.6 0 0 1-.383-.1L12 15.517Z"/></svg>