<svg xmlns="http://www.w3.org/2000/svg" width="24" height="24" fill="none"><rect width="24" height="24" fill="#E28E3C" rx="4"/><path fill="#fff" d="m17.354 8.228-5.23-2.326a.29.29 0 0 0-.247 0l-5.23 2.326a.308.308 0 0 0-.185.277v1.649c0 3.027 1.809 6.695 5.427 7.963.072.024.15.024.222 0 3.618-1.268 5.427-4.936 5.427-7.963v-1.65a.307.307 0 0 0-.184-.276Zm-2.47 2.037L11.637 14.4a.542.542 0 0 1-.392.204l-.032.002a.541.541 0 0 1-.381-.158l-1.674-1.674a.539.539 0 1 1 .763-.761l1.244 1.244 2.874-3.659a.539.539 0 0 1 .848.666h-.001Z"/></svg>