<svg xmlns="http://www.w3.org/2000/svg" width="100" height="100" fill="none"><rect width="100" height="100" fill="#23A26D" fill-opacity=".12" rx="50"/><path fill="#23A26D" d="M49.778 26.852c-12.755 0-23.149 10.393-23.149 23.148 0 12.755 10.394 23.148 23.149 23.148 12.754 0 23.148-10.393 23.148-23.148 0-12.755-10.394-23.148-23.148-23.148Zm11.064 17.824L47.717 57.8a1.734 1.734 0 0 1-2.453 0l-6.551-6.551a1.747 1.747 0 0 1 0-2.454 1.747 1.747 0 0 1 2.453 0l5.325 5.324 11.898-11.898a1.747 1.747 0 0 1 2.453 0c.672.672.672 1.76 0 2.454Z"/></svg>