<svg width="100" height="100" viewBox="0 0 100 100" fill="none" xmlns="http://www.w3.org/2000/svg">
<rect width="100" height="100" rx="50" fill="#23A26D" fill-opacity="0.12"/>
<path d="M49.7775 26.8518C37.0229 26.8518 26.6294 37.2453 26.6294 50C26.6294 62.7546 37.0229 73.1481 49.7775 73.1481C62.5322 73.1481 72.9257 62.7546 72.9257 50C72.9257 37.2453 62.5322 26.8518 49.7775 26.8518ZM60.8424 44.6759L47.7174 57.8009C47.3933 58.125 46.9535 58.3101 46.4905 58.3101C46.0275 58.3101 45.5877 58.125 45.2637 57.8009L38.7127 51.25C38.0414 50.5787 38.0414 49.4675 38.7127 48.7962C39.384 48.125 40.4951 48.125 41.1664 48.7962L46.4905 54.1203L58.3887 42.2222C59.06 41.5509 60.1711 41.5509 60.8424 42.2222C61.5137 42.8935 61.5137 43.9814 60.8424 44.6759Z" fill="#23A26D"/>
</svg>
