<svg xmlns="http://www.w3.org/2000/svg" width="24" height="24" fill="none"><rect width="24" height="24" fill="#E28E3C" rx="4"/><path fill="#fff" d="M12.628 16h-.961c-1.392 0-2.574-.485-3.544-1.455-.971-.97-1.456-2.151-1.456-3.542s.485-2.573 1.455-3.545C9.092 6.486 10.273 6 11.665 6c.696 0 1.347.13 1.954.39.606.26 1.135.617 1.588 1.07.453.453.81.982 1.07 1.586.26.604.39 1.256.39 1.954 0 1.181-.296 2.29-.887 3.323a8.522 8.522 0 0 1-2.29 2.609.693.693 0 0 1-.276.089.479.479 0 0 1-.268-.06.604.604 0 0 1-.214-.184.478.478 0 0 1-.085-.272L12.628 16Zm-.937-1.62a.47.47 0 0 0 .346-.143.475.475 0 0 0 .142-.349.472.472 0 0 0-.144-.347.48.48 0 0 0-.348-.142.463.463 0 0 0-.347.144.485.485 0 0 0-.143.348c0 .136.048.252.145.347a.481.481 0 0 0 .349.143Zm-1.385-4.912c.077.03.154.028.231-.006a.428.428 0 0 0 .189-.163.98.98 0 0 1 .388-.36c.167-.09.36-.134.579-.134.327 0 .593.086.798.257.204.171.307.402.306.694 0 .18-.043.35-.131.507a2.687 2.687 0 0 1-.448.552c-.286.279-.492.518-.617.718-.125.2-.187.393-.186.581 0 .088.028.162.085.224a.272.272 0 0 0 .207.093c.08 0 .148-.03.203-.093a.4.4 0 0 0 .097-.228c.022-.138.097-.29.224-.459.127-.168.282-.343.464-.526.25-.25.43-.486.538-.708.108-.221.162-.443.162-.666 0-.457-.158-.825-.474-1.103-.315-.278-.716-.417-1.203-.417-.327 0-.629.08-.904.239-.276.16-.483.35-.621.57a.355.355 0 0 0-.044.26c.02.082.073.138.157.168Z"/></svg>