<svg xmlns="http://www.w3.org/2000/svg" width="43" height="44" fill="none"><rect width="43" height="44" fill="#1D4135" rx="21.5"/><g clip-path="url(#a)"><path fill="#fff" d="M18.207 21.757a.998.998 0 0 1 0 1.415L16.38 25H26a1 1 0 1 1 0 2h-9.62l1.828 1.828a1 1 0 0 1-1.414 1.415l-3.536-3.536a1 1 0 0 1 0-1.414l3.536-3.536a1 1 0 0 1 1.414 0Zm7.586-8a1 1 0 0 1 1.32-.083l.094.083 3.536 3.536a1 1 0 0 1 .083 1.32l-.083.094-3.536 3.535a1 1 0 0 1-1.497-1.32l.083-.094L27.62 19H18a1 1 0 0 1-.117-1.993L18 17h9.621l-1.828-1.83a1 1 0 0 1 0-1.413Z"/></g><defs><clipPath id="a"><path fill="#fff" d="M10 10h24v24H10z"/></clipPath></defs></svg>