<svg xmlns="http://www.w3.org/2000/svg" width="21" height="19" fill="none"><path fill="#34A853" d="M8.5 9c2.525 0 4.571-2.014 4.571-4.5S11.025 0 8.5 0 3.929 2.014 3.929 4.5 5.975 9 8.5 9Zm3.2 1.125h-.596a6.307 6.307 0 0 1-5.208 0H5.3c-2.65 0-4.8 2.116-4.8 4.725v1.463C.5 17.244 1.268 18 2.214 18h12.572c.946 0 1.714-.756 1.714-1.688V14.85c0-2.609-2.15-4.725-4.8-4.725Z"/><circle cx="15.5" cy="14" r="5" fill="#fff"/><path fill="#34A853" d="m14.217 16.902-2.6-2.18a.298.298 0 0 1 0-.473l.566-.475c.156-.13.41-.13.566 0l1.751 1.468 3.752-3.144c.156-.13.409-.13.565 0l.566.474a.298.298 0 0 1 0 .474l-4.6 3.856a.456.456 0 0 1-.566 0Z"/></svg>