<svg xmlns="http://www.w3.org/2000/svg" width="48" height="48" fill="none"><rect width="48" height="48" fill="#fff" rx="24"/><path fill="#1434CB" d="M28.959 18c-2.32 0-4.404 1.207-4.404 3.423 0 2.552 3.68 2.726 3.68 3.995 0 .536-.623 1.021-1.671 1.021-1.497 0-2.62-.672-2.62-.672l-.474 2.24s1.285.573 3.006.573c2.545 0 4.541-1.257 4.541-3.522 0-2.69-3.692-2.863-3.692-4.046 0-.423.511-.884 1.559-.884 1.185 0 2.158.486 2.158.486l.474-2.166c-.012 0-1.073-.448-2.557-.448Zm-21.257.162-.063.323s.973.175 1.859.536c1.135.41 1.21.647 1.41 1.381l2.083 8.004h2.794l4.28-10.244h-2.783l-2.757 6.97-1.122-5.912c-.1-.672-.624-1.058-1.273-1.058H7.702Zm13.485 0-2.183 10.244h2.657l2.17-10.244h-2.644Zm14.795 0c-.636 0-.973.336-1.222.933l-3.893 9.31h2.782l.537-1.555h3.393l.324 1.556h2.458l-2.133-10.244h-2.246Zm.362 2.776.823 3.846H34.96l1.385-3.846Z"/></svg>