<svg xmlns="http://www.w3.org/2000/svg" width="25" height="24" fill="none"><path fill="#E68A34" fill-rule="evenodd" d="M17.394 1.229C15.805.899 12.26.783 10.208.783c-1.726 0-3.394.281-5.078.633-2 .416-3.344 2.496-3.634 4.738a44.571 44.571 0 0 0-.379 6.934c-.01.304-.014.608-.014.912 0 2.195.223 3.372.463 4.646l.017.096c.39 2.057 2.133 3.66 4.278 3.963l.279.042c1.689.24 3.312.47 5.727.47 2.416 0 4.04-.232 5.728-.47l.281-.041a5.127 5.127 0 0 0 3.97-2.997c.22-.506-.21-1.011-.763-1.011l-.632-.007c-.27-.005-.54-.007-.811-.007a4.574 4.574 0 0 1 0-9.15l.806-.003.555-.005c.562-.002.986-.53.734-1.032a5.022 5.022 0 0 0-1.91-2.043c-1.316-.696-3.019-.84-5.424-.84-1.932 0-3.792.147-5.228.262-.391.032-.747.06-1.068.082a1.072 1.072 0 1 1-.151-2.138l1.003-.077c1.438-.115 3.416-.274 5.444-.274 1.414 0 2.767.041 4.022.28.607.116 1.188-.37.917-.925-.382-.781-1.056-1.405-1.944-1.592m2.246 15.312H22a1.714 1.714 0 0 0 1.715-1.714v-1.435A1.714 1.714 0 0 0 22 11.678h-2.36a2.432 2.432 0 1 0 0 4.863" clip-rule="evenodd"/></svg>