<svg width="25" height="24" viewBox="0 0 25 24" fill="none" xmlns="http://www.w3.org/2000/svg">
<path d="M13.5 11.1504H7.5" stroke="#9EA2AD" stroke-width="1.5" stroke-linecap="round" stroke-linejoin="round"/>
<path d="M2.5 11.1498V6.52985C2.5 4.48985 4.15 2.83984 6.19 2.83984H11.81C13.85 2.83984 15.5 4.10984 15.5 6.14984" stroke="#9EA2AD" stroke-width="1.5" stroke-linecap="round" stroke-linejoin="round"/>
<path d="M17.98 12.2004C17.48 12.6804 17.24 13.4204 17.44 14.1804C17.69 15.1104 18.61 15.7004 19.57 15.7004H20.5V17.1504C20.5 19.3604 18.71 21.1504 16.5 21.1504H6.5C4.29 21.1504 2.5 19.3604 2.5 17.1504V10.1504C2.5 7.94039 4.29 6.15039 6.5 6.15039H16.5C18.7 6.15039 20.5 7.95039 20.5 10.1504V11.6003H19.42C18.86 11.6003 18.35 11.8204 17.98 12.2004Z" stroke="#9EA2AD" stroke-width="1.5" stroke-linecap="round" stroke-linejoin="round"/>
<path d="M22.5 12.6196V14.6796C22.5 15.2396 22.0399 15.6996 21.4699 15.6996H19.5399C18.4599 15.6996 17.47 14.9097 17.38 13.8297C17.32 13.1997 17.5599 12.6096 17.9799 12.1996C18.3499 11.8196 18.86 11.5996 19.42 11.5996H21.4699C22.0399 11.5996 22.5 12.0596 22.5 12.6196Z" stroke="#9EA2AD" stroke-width="1.5" stroke-linecap="round" stroke-linejoin="round"/>
</svg>
